<svg xmlns="http://www.w3.org/2000/svg" fill="none" viewBox="0 0 20 20" height="20" width="20">
<g clip-path="url(#clip0_2694_2309)">
<path fill="#007AFF" d="M7.63735 1.09979C8.45613 0.0962927 9.98947 0.0962927 10.8083 1.09979C11.3157 1.72172 12.1399 1.98953 12.916 1.78464C14.1683 1.45407 15.4088 2.35533 15.4813 3.64845C15.5263 4.44987 16.0357 5.15098 16.784 5.44141C17.9914 5.91003 18.4653 7.36832 17.7638 8.45713C17.3292 9.13191 17.3292 9.99854 17.7638 10.6733C18.4653 11.7621 17.9914 13.2205 16.784 13.6891C16.0357 13.9795 15.5263 14.6806 15.4813 15.4821C15.4088 16.7751 14.1683 17.6764 12.916 17.3458C12.1399 17.141 11.3157 17.4088 10.8083 18.0307C9.98947 19.0342 8.45613 19.0342 7.63735 18.0307C7.12991 17.4088 6.3057 17.141 5.52961 17.3458C4.27735 17.6764 3.03685 16.7751 2.96429 15.4821C2.91932 14.6806 2.40992 13.9795 1.66163 13.6891C0.454227 13.2205 -0.019601 11.7621 0.681767 10.6733C1.11644 9.99854 1.11644 9.13191 0.681767 8.45713C-0.019601 7.36832 0.454227 5.91003 1.66163 5.44141C2.40992 5.15098 2.91932 4.44987 2.96429 3.64845C3.03685 2.35533 4.27735 1.45406 5.52961 1.78464C6.3057 1.98953 7.12991 1.72172 7.63735 1.09979Z"></path>
<path fill="white" d="M13.7607 7.29683C14.0548 7.61202 14.0377 8.106 13.7226 8.40017L9.0759 12.7371C8.76837 13.0241 8.28871 13.0158 7.99126 12.7184L5.20325 9.93037C4.8984 9.6255 4.8984 9.13123 5.20325 8.82637C5.50811 8.52151 6.00239 8.52151 6.30725 8.82637L8.56196 11.081L12.6573 7.25878C12.9725 6.96461 13.4664 6.98164 13.7607 7.29683Z" clip-rule="evenodd" fill-rule="evenodd"></path>
</g>
<defs>
<clipPath id="clip0_2694_2309">
<rect transform="translate(0.35498 0.347168)" fill="white" height="18.7354" width="18.7354"></rect>
</clipPath>
</defs>
</svg>
